<svg width="56" height="62" viewBox="0 0 56 62" fill="none" xmlns="http://www.w3.org/2000/svg">
<path d="M27.9999 61V34.3333M27.9999 61L2.27326 44.9208C1.81373 44.6336 1.58397 44.49 1.45861 44.2639C1.33325 44.0377 1.33325 43.7667 1.33325 43.2248V17.6667M27.9999 61L41.3333 52.6667L53.7266 44.9208C54.1861 44.6336 54.4159 44.49 54.5412 44.2639C54.6666 44.0377 54.6666 43.7667 54.6666 43.2248V17.6667M27.9999 34.3333L1.33325 17.6667M27.9999 34.3333L54.6666 17.6667M1.33325 17.6667L26.9399 1.6625C27.4554 1.34033 27.7131 1.17925 27.9999 1.17925C28.2867 1.17925 28.5444 1.34033 29.0599 1.6625L54.6666 17.6667" stroke="#FAFAFA" stroke-width="2" stroke-linejoin="round"/>
</svg>
