<svg width="220" height="30" viewBox="0 0 220 30" fill="none" xmlns="http://www.w3.org/2000/svg">
<path d="M153.695 5.28266C155.063 1.76089 155.747 0 156.923 0C158.099 0 158.783 1.76089 160.151 5.28266L160.215 5.44666C160.988 7.43629 161.374 8.4311 162.162 9.03576C162.949 9.64043 163.983 9.73604 166.05 9.92726L166.424 9.96183C169.808 10.2748 171.5 10.4313 171.862 11.5429C172.224 12.6545 170.967 13.8351 168.454 16.1961L167.616 16.9841C166.344 18.1793 165.708 18.7769 165.411 19.5602C165.356 19.7063 165.31 19.856 165.274 20.0083C165.079 20.8248 165.265 21.6918 165.637 23.4257L165.753 23.9654C166.438 27.1519 166.78 28.7452 166.183 29.4324C165.959 29.6892 165.669 29.8741 165.347 29.965C164.484 30.2081 163.259 29.1772 160.808 27.1153C159.2 25.7614 158.395 25.0845 157.471 24.9322C157.108 24.8723 156.738 24.8723 156.375 24.9322C155.451 25.0845 154.647 25.7614 153.038 27.1153C150.588 29.1772 149.363 30.2081 148.5 29.965C148.177 29.8741 147.887 29.6892 147.664 29.4324C147.066 28.7452 147.408 27.1519 148.093 23.9654L148.209 23.4257C148.581 21.6918 148.768 20.8248 148.573 20.0083C148.536 19.856 148.49 19.7063 148.435 19.5602C148.139 18.7769 147.503 18.1793 146.23 16.9841L145.392 16.1961C142.879 13.8351 141.622 12.6545 141.984 11.5429C142.346 10.4313 144.038 10.2748 147.422 9.96183L147.796 9.92726C149.863 9.73604 150.897 9.64043 151.685 9.03576C152.472 8.4311 152.859 7.43629 153.631 5.44665L153.695 5.28266Z" fill="#009DD9"/>
<path d="M201.003 5.28266C202.371 1.76089 203.055 0 204.231 0C205.407 0 206.091 1.76089 207.459 5.28266L207.522 5.44666C208.295 7.43629 208.682 8.4311 209.469 9.03576C210.257 9.64043 211.29 9.73604 213.358 9.92726L213.732 9.96183C217.116 10.2748 218.807 10.4313 219.169 11.5429C219.531 12.6545 218.275 13.8351 215.762 16.1961L214.923 16.9841C213.651 18.1793 213.015 18.7769 212.719 19.5602C212.663 19.7063 212.617 19.856 212.581 20.0083C212.386 20.8248 212.573 21.6918 212.945 23.4257L213.061 23.9654C213.746 27.1519 214.088 28.7452 213.49 29.4324C213.267 29.6892 212.977 29.8741 212.654 29.965C211.791 30.2081 210.566 29.1772 208.116 27.1153C206.507 25.7614 205.703 25.0845 204.779 24.9322C204.416 24.8723 204.046 24.8723 203.682 24.9322C202.759 25.0845 201.954 25.7614 200.345 27.1153C197.895 29.1772 196.67 30.2081 195.807 29.965C195.485 29.8741 195.195 29.6892 194.971 29.4324C194.374 28.7452 194.716 27.1519 195.4 23.9654L195.516 23.4257C195.889 21.6918 196.075 20.8248 195.88 20.0083C195.844 19.856 195.798 19.7063 195.743 19.5602C195.446 18.7769 194.81 18.1793 193.538 16.9841L192.699 16.1961C190.186 13.8351 188.93 12.6545 189.292 11.5429C189.654 10.4313 191.346 10.2748 194.73 9.96183L195.103 9.92726C197.171 9.73604 198.205 9.64043 198.992 9.03576C199.78 8.4311 200.166 7.43629 200.939 5.44665L201.003 5.28266Z" fill="#009DD9"/>
<path d="M11.772 5.28266C13.1399 1.76089 13.8239 0 15 0C16.1761 0 16.8601 1.76089 18.228 5.28266L18.2917 5.44666C19.0645 7.43629 19.4509 8.4311 20.2384 9.03576C21.0259 9.64043 22.0597 9.73604 24.1273 9.92726L24.501 9.96183C27.8848 10.2748 29.5767 10.4313 29.9388 11.5429C30.3008 12.6545 29.0443 13.8351 26.5314 16.1961L25.6927 16.9841C24.4206 18.1793 23.7845 18.7769 23.4881 19.5602C23.4328 19.7063 23.3868 19.856 23.3504 20.0083C23.1556 20.8248 23.3418 21.6918 23.7143 23.4257L23.8303 23.9654C24.5149 27.1519 24.8572 28.7452 24.2595 29.4324C24.0362 29.6892 23.7459 29.8741 23.4235 29.965C22.5606 30.2081 21.3355 29.1772 18.8853 27.1153C17.2764 25.7614 16.472 25.0845 15.5484 24.9322C15.1851 24.8723 14.8149 24.8723 14.4516 24.9322C13.528 25.0845 12.7236 25.7614 11.1147 27.1153C8.6645 29.1772 7.43941 30.2081 6.57651 29.965C6.25406 29.8741 5.96381 29.6892 5.74047 29.4324C5.14281 28.7452 5.48511 27.1519 6.16972 23.9654L6.28567 23.4257C6.65818 21.6918 6.84444 20.8248 6.64957 20.0083C6.61322 19.856 6.56725 19.7063 6.51195 19.5602C6.21549 18.7769 5.57944 18.1793 4.30734 16.9841L3.46865 16.1961C0.955699 13.8351 -0.300776 12.6545 0.0612494 11.5429C0.423275 10.4313 2.11517 10.2748 5.49897 9.96183L5.87275 9.92726C7.94029 9.73604 8.97406 9.64043 9.76157 9.03576C10.5491 8.4311 10.9355 7.43629 11.7083 5.44665L11.772 5.28266Z" fill="#009DD9"/>
<path d="M59.0796 5.28266C60.4475 1.76089 61.1315 0 62.3076 0C63.4838 0 64.1677 1.76089 65.5356 5.28266L65.5993 5.44666C66.3721 7.43629 66.7585 8.4311 67.546 9.03576C68.3336 9.64043 69.3673 9.73604 71.4349 9.92726L71.8086 9.96183C75.1924 10.2748 76.8843 10.4313 77.2464 11.5429C77.6084 12.6545 76.3519 13.8351 73.839 16.1961L73.0003 16.9841C71.7282 18.1793 71.0921 18.7769 70.7957 19.5602C70.7404 19.7063 70.6944 19.856 70.658 20.0083C70.4632 20.8248 70.6494 21.6918 71.0219 23.4257L71.1379 23.9654C71.8225 27.1519 72.1648 28.7452 71.5671 29.4324C71.3438 29.6892 71.0536 29.8741 70.7311 29.965C69.8682 30.2081 68.6431 29.1772 66.1929 27.1153C64.584 25.7614 63.7796 25.0845 62.856 24.9322C62.4927 24.8723 62.1225 24.8723 61.7592 24.9322C60.8356 25.0845 60.0312 25.7614 58.4223 27.1153C55.9721 29.1772 54.747 30.2081 53.8841 29.965C53.5617 29.8741 53.2714 29.6892 53.0481 29.4324C52.4504 28.7452 52.7927 27.1519 53.4773 23.9654L53.5933 23.4257C53.9658 21.6918 54.1521 20.8248 53.9572 20.0083C53.9208 19.856 53.8749 19.7063 53.8196 19.5602C53.5231 18.7769 52.8871 18.1793 51.615 16.9841L50.7763 16.1961C48.2633 13.8351 47.0068 12.6545 47.3689 11.5429C47.7309 10.4313 49.4228 10.2748 52.8066 9.96183L53.1804 9.92726C55.2479 9.73604 56.2817 9.64043 57.0692 9.03576C57.8567 8.4311 58.2431 7.43629 59.0159 5.44665L59.0796 5.28266Z" fill="#009DD9"/>
<path d="M106.387 5.28266C107.755 1.76089 108.439 0 109.615 0C110.792 0 111.476 1.76089 112.843 5.28266L112.907 5.44666C113.68 7.43629 114.066 8.4311 114.854 9.03576C115.641 9.64043 116.675 9.73604 118.743 9.92726L119.117 9.96183C122.5 10.2748 124.192 10.4313 124.554 11.5429C124.916 12.6545 123.66 13.8351 121.147 16.1961L120.308 16.9841C119.036 18.1793 118.4 18.7769 118.104 19.5602C118.048 19.7063 118.002 19.856 117.966 20.0083C117.771 20.8248 117.957 21.6918 118.33 23.4257L118.446 23.9654C119.13 27.1519 119.473 28.7452 118.875 29.4324C118.652 29.6892 118.361 29.8741 118.039 29.965C117.176 30.2081 115.951 29.1772 113.501 27.1153C111.892 25.7614 111.087 25.0845 110.164 24.9322C109.801 24.8723 109.43 24.8723 109.067 24.9322C108.143 25.0845 107.339 25.7614 105.73 27.1153C103.28 29.1772 102.055 30.2081 101.192 29.965C100.87 29.8741 100.579 29.6892 100.356 29.4324C99.7583 28.7452 100.101 27.1519 100.785 23.9654L100.901 23.4257C101.274 21.6918 101.46 20.8248 101.265 20.0083C101.229 19.856 101.183 19.7063 101.127 19.5602C100.831 18.7769 100.195 18.1793 98.9228 16.9841L98.0841 16.1961C95.5712 13.8351 94.3147 12.6545 94.6767 11.5429C95.0388 10.4313 96.7307 10.2748 100.114 9.96183L100.488 9.92726C102.556 9.73604 103.59 9.64043 104.377 9.03576C105.165 8.4311 105.551 7.43629 106.324 5.44665L106.387 5.28266Z" fill="#009DD9"/>
</svg>
