<svg width="192" height="30" viewBox="0 0 192 30" fill="none" xmlns="http://www.w3.org/2000/svg">
<path d="M133.202 6.57831C134.388 3.5261 134.981 2 136 2C137.019 2 137.612 3.5261 138.798 6.57831L138.853 6.72044C139.523 8.44478 139.857 9.30695 140.54 9.83099C141.222 10.355 142.118 10.4379 143.91 10.6036L144.234 10.6336C147.167 10.9048 148.633 11.0404 148.947 12.0039C149.261 12.9673 148.172 13.9904 145.994 16.0366L145.267 16.7196C144.164 17.7554 143.613 18.2734 143.356 18.9522C143.308 19.0788 143.269 19.2085 143.237 19.3405C143.068 20.0482 143.23 20.7995 143.552 22.3022L143.653 22.77C144.246 25.5317 144.543 26.9125 144.025 27.5081C143.831 27.7307 143.58 27.8909 143.3 27.9697C142.553 28.1804 141.491 27.2869 139.367 25.5C137.973 24.3266 137.276 23.7399 136.475 23.6079C136.16 23.556 135.84 23.556 135.525 23.6079C134.724 23.7399 134.027 24.3266 132.633 25.5C130.509 27.2869 129.447 28.1804 128.7 27.9697C128.42 27.8909 128.169 27.7307 127.975 27.5081C127.457 26.9125 127.754 25.5317 128.347 22.77L128.448 22.3022C128.77 20.7995 128.932 20.0482 128.763 19.3405C128.731 19.2085 128.692 19.0788 128.644 18.9522C128.387 18.2734 127.836 17.7554 126.733 16.7196L126.006 16.0366C123.828 13.9904 122.739 12.9673 123.053 12.0039C123.367 11.0404 124.833 10.9048 127.766 10.6336L128.09 10.6036C129.882 10.4379 130.778 10.355 131.46 9.83099C132.143 9.30695 132.477 8.44478 133.147 6.72043L133.202 6.57831Z" fill="#009DD9"/>
<path d="M174.202 6.57831C175.388 3.5261 175.981 2 177 2C178.019 2 178.612 3.5261 179.798 6.57831L179.853 6.72044C180.523 8.44478 180.857 9.30695 181.54 9.83099C182.222 10.355 183.118 10.4379 184.91 10.6036L185.234 10.6336C188.167 10.9048 189.633 11.0404 189.947 12.0039C190.261 12.9673 189.172 13.9904 186.994 16.0366L186.267 16.7196C185.164 17.7554 184.613 18.2734 184.356 18.9522C184.308 19.0788 184.269 19.2085 184.237 19.3405C184.068 20.0482 184.23 20.7995 184.552 22.3022L184.653 22.77C185.246 25.5317 185.543 26.9125 185.025 27.5081C184.831 27.7307 184.58 27.8909 184.3 27.9697C183.553 28.1804 182.491 27.2869 180.367 25.5C178.973 24.3266 178.276 23.7399 177.475 23.6079C177.16 23.556 176.84 23.556 176.525 23.6079C175.724 23.7399 175.027 24.3266 173.633 25.5C171.509 27.2869 170.447 28.1804 169.7 27.9697C169.42 27.8909 169.169 27.7307 168.975 27.5081C168.457 26.9125 168.754 25.5317 169.347 22.77L169.448 22.3022C169.77 20.7995 169.932 20.0482 169.763 19.3405C169.731 19.2085 169.692 19.0788 169.644 18.9522C169.387 18.2734 168.836 17.7554 167.733 16.7196L167.006 16.0366C164.828 13.9904 163.739 12.9673 164.053 12.0039C164.367 11.0404 165.833 10.9048 168.766 10.6336L169.09 10.6036C170.882 10.4379 171.778 10.355 172.46 9.83099C173.143 9.30695 173.477 8.44478 174.147 6.72043L174.202 6.57831Z" stroke="#B1EAFF" stroke-width="3"/>
<path d="M169.448 22.3022L169.347 22.77C168.754 25.5317 168.457 26.9125 168.975 27.5081C169.169 27.7307 169.42 27.8909 169.7 27.9697C170.447 28.1804 171.509 27.2869 173.633 25.5L173.633 25.4999C174.84 24.4836 175.525 23.9075 176.207 23.6857C176.265 23.6667 176.294 23.6573 176.45 23.6326C176.606 23.6079 176.688 23.6079 176.852 23.6079H178V2C178 2 175.388 3.5261 174.202 6.57831L174.147 6.72043C173.477 8.44478 173.143 9.30695 172.46 9.83099C171.778 10.355 170.882 10.4379 169.09 10.6036L168.766 10.6336C165.833 10.9048 164.367 11.0404 164.053 12.0039C163.739 12.9673 164.828 13.9904 167.006 16.0366L167.733 16.7196C168.836 17.7554 169.387 18.2734 169.644 18.9522C169.692 19.0788 169.731 19.2085 169.763 19.3405C169.932 20.0482 169.77 20.7995 169.448 22.3022Z" fill="#009DD9"/>
<path d="M10.2024 6.57831C11.3879 3.5261 11.9807 2 13 2C14.0193 2 14.6121 3.5261 15.7976 6.57831L15.8528 6.72044C16.5226 8.44478 16.8575 9.30695 17.54 9.83099C18.2225 10.355 19.1184 10.4379 20.9103 10.6036L21.2342 10.6336C24.1668 10.9048 25.6332 11.0404 25.9469 12.0039C26.2607 12.9673 25.1717 13.9904 22.9938 16.0366L22.267 16.7196C21.1645 17.7554 20.6132 18.2734 20.3563 18.9522C20.3084 19.0788 20.2685 19.2085 20.237 19.3405C20.0682 20.0482 20.2296 20.7995 20.5524 22.3022L20.6529 22.77C21.2462 25.5317 21.5429 26.9125 21.0249 27.5081C20.8314 27.7307 20.5798 27.8909 20.3004 27.9697C19.5525 28.1804 18.4908 27.2869 16.3673 25.5C14.9729 24.3266 14.2757 23.7399 13.4753 23.6079C13.1604 23.556 12.8396 23.556 12.5247 23.6079C11.7243 23.7399 11.0271 24.3266 9.63273 25.5C7.50923 27.2869 6.44749 28.1804 5.69964 27.9697C5.42019 27.8909 5.16863 27.7307 4.97508 27.5081C4.4571 26.9125 4.75377 25.5317 5.34709 22.77L5.44758 22.3022C5.77042 20.7995 5.93185 20.0482 5.76296 19.3405C5.73146 19.2085 5.69162 19.0788 5.64369 18.9522C5.38676 18.2734 4.83552 17.7554 3.73303 16.7196L3.00616 16.0366C0.828273 13.9904 -0.260672 12.9673 0.0530828 12.0039C0.366838 11.0404 1.83315 10.9048 4.76577 10.6336L5.08971 10.6036C6.88158 10.4379 7.77752 10.355 8.46003 9.83099C9.14254 9.30695 9.47742 8.44478 10.1472 6.72043L10.2024 6.57831Z" fill="#009DD9"/>
<path d="M51.2024 6.57831C52.3879 3.5261 52.9807 2 54 2C55.0193 2 55.6121 3.5261 56.7976 6.57831L56.8528 6.72044C57.5226 8.44478 57.8575 9.30695 58.54 9.83099C59.2225 10.355 60.1184 10.4379 61.9103 10.6036L62.2342 10.6336C65.1668 10.9048 66.6332 11.0404 66.9469 12.0039C67.2607 12.9673 66.1717 13.9904 63.9938 16.0366L63.267 16.7196C62.1645 17.7554 61.6132 18.2734 61.3563 18.9522C61.3084 19.0788 61.2685 19.2085 61.237 19.3405C61.0682 20.0482 61.2296 20.7995 61.5524 22.3022L61.6529 22.77C62.2462 25.5317 62.5429 26.9125 62.0249 27.5081C61.8314 27.7307 61.5798 27.8909 61.3004 27.9697C60.5525 28.1804 59.4908 27.2869 57.3673 25.5C55.9729 24.3266 55.2757 23.7399 54.4753 23.6079C54.1604 23.556 53.8396 23.556 53.5247 23.6079C52.7243 23.7399 52.0271 24.3266 50.6327 25.5C48.5092 27.2869 47.4475 28.1804 46.6996 27.9697C46.4202 27.8909 46.1686 27.7307 45.9751 27.5081C45.4571 26.9125 45.7538 25.5317 46.3471 22.77L46.4476 22.3022C46.7704 20.7995 46.9318 20.0482 46.763 19.3405C46.7315 19.2085 46.6916 19.0788 46.6437 18.9522C46.3868 18.2734 45.8355 17.7554 44.733 16.7196L44.0062 16.0366C41.8283 13.9904 40.7393 12.9673 41.0531 12.0039C41.3668 11.0404 42.8331 10.9048 45.7658 10.6336L46.0897 10.6036C47.8816 10.4379 48.7775 10.355 49.46 9.83099C50.1425 9.30695 50.4774 8.44478 51.1472 6.72043L51.2024 6.57831Z" fill="#009DD9"/>
<path d="M92.2024 6.57831C93.3879 3.5261 93.9807 2 95 2C96.0193 2 96.6121 3.5261 97.7976 6.57831L97.8528 6.72044C98.5226 8.44478 98.8575 9.30695 99.54 9.83099C100.222 10.355 101.118 10.4379 102.91 10.6036L103.234 10.6336C106.167 10.9048 107.633 11.0404 107.947 12.0039C108.261 12.9673 107.172 13.9904 104.994 16.0366L104.267 16.7196C103.164 17.7554 102.613 18.2734 102.356 18.9522C102.308 19.0788 102.269 19.2085 102.237 19.3405C102.068 20.0482 102.23 20.7995 102.552 22.3022L102.653 22.77C103.246 25.5317 103.543 26.9125 103.025 27.5081C102.831 27.7307 102.58 27.8909 102.3 27.9697C101.553 28.1804 100.491 27.2869 98.3673 25.5C96.9729 24.3266 96.2757 23.7399 95.4753 23.6079C95.1604 23.556 94.8396 23.556 94.5247 23.6079C93.7243 23.7399 93.0271 24.3266 91.6327 25.5C89.5092 27.2869 88.4475 28.1804 87.6996 27.9697C87.4202 27.8909 87.1686 27.7307 86.9751 27.5081C86.4571 26.9125 86.7538 25.5317 87.3471 22.77L87.4476 22.3022C87.7704 20.7995 87.9318 20.0482 87.763 19.3405C87.7315 19.2085 87.6916 19.0788 87.6437 18.9522C87.3868 18.2734 86.8355 17.7554 85.733 16.7196L85.0062 16.0366C82.8283 13.9904 81.7393 12.9673 82.0531 12.0039C82.3668 11.0404 83.8331 10.9048 86.7658 10.6336L87.0897 10.6036C88.8816 10.4379 89.7775 10.355 90.46 9.83099C91.1425 9.30695 91.4774 8.44478 92.1472 6.72043L92.2024 6.57831Z" fill="#009DD9"/>
</svg>
