<svg width="42" height="50" viewBox="0 0 42 50" fill="none" xmlns="http://www.w3.org/2000/svg">
<path d="M19.0759 1.78225C19.626 -0.156629 22.374 -0.156621 22.9241 1.78225L26.9668 16.0326C27.1228 16.5826 27.5067 17.0395 28.0215 17.288L40.2682 23.1988C41.7757 23.9264 41.7757 26.0736 40.2682 26.8012L28.0215 32.712C27.5067 32.9605 27.1228 33.4174 26.9668 33.9674L22.9241 48.2178C22.374 50.1566 19.626 50.1566 19.0759 48.2177L15.0332 33.9674C14.8772 33.4174 14.4933 32.9605 13.9785 32.712L1.73183 26.8012C0.224292 26.0736 0.224292 23.9264 1.73184 23.1988L13.9785 17.288C14.4933 17.0395 14.8772 16.5826 15.0332 16.0326L19.0759 1.78225Z" fill="#009DD9"/>
</svg>
